<svg xmlns="http://www.w3.org/2000/svg" xmlns:xlink="http://www.w3.org/1999/xlink" width="24px" height="24px" viewBox="0 0 700 810" preserveAspectRatio="xMidYMid meet" ><rect id="svgEditorBackground" x="0" y="0" width="1310" height="810" style="fill: none; stroke: none;"/><defs id="svgEditorDefs"><path id="svgEditorClosePathDefs" style="stroke:black;stroke-width:1px;fill:rosybrown;"/><marker id="marker1" viewBox="380.5882263183594 80.46095275878906 548.8235473632812 649.0780639648438" markerUnits="strokeWidth" refX="655" refY="405" markerWidth="34.3" markerHeight="40.57" orient="auto"><g transform="matrix(8.6391 0 0 8.6391 -7931.82 -5025.6)"><path d="M974.3,614.977c36.616,-16.969,68.689,16.034,40.904,41.833c-25.616,26.109,-72.407,-9.066,-44.312,-24.48" style="stroke:black;fill:none;stroke-width:6px;"/><path d="M803.558,624.583c5.173,45.561,8.778,56.94,-0.31,51.13s-25.414,-13.762,-37.495,-21.691s0.926,-6.57,37.805,-29.438Z" style="stroke:black;fill:black;stroke-width:1px;" transform="matrix(-0.516699 -0.546646 0.546646 -0.516699 1038.68 1383.04)"/></g></marker><polygon id="svgEditorIconDefs" style="fill:rosybrown;"/></defs><g id="e16_group" transform="matrix(8.66948 0 0 8.6391 -8296.64 -5025.6)"><path d="M974.3,614.977c36.616,-16.969,68.689,16.034,40.904,41.833c-25.616,26.109,-72.407,-9.066,-44.312,-24.48" style="stroke:black;fill:none;stroke-width:10px;" id="e11_curve3" transform="matrix(1 0 0 1 3.57576 1.15753)"/><path d="M803.558,624.583c5.173,45.561,8.778,56.94-0.31,51.13s-25.414-13.762-37.495-21.691s0.926-6.57,37.612-31.385Z" style="stroke:black;fill:black;stroke-width:1px;" id="e15_areaS3" transform="matrix(-0.516699 -0.546646 0.546646 -0.516699 1038.68 1383.04)"/></g></svg>