<svg xmlns="http://www.w3.org/2000/svg" viewBox="0 0 141.26 141.26"><defs><style>.cls-1{fill:none;}</style></defs><title>Recurso 6</title><g id="Capa_2" data-name="Capa 2"><g id="Capa_1-2" data-name="Capa 1"><path d="M116.2,109.29a59.61,59.61,0,0,1-40.77,21.14c-1.74.15-3.48.22-5.21.22a59.58,59.58,0,0,1-38.56-14.12,10,10,0,0,1,12.88-15.3,40,40,0,0,0,56.29-4.72s0,0,0,0l.07-.09A40,40,0,0,0,43.8,40.68l.65.54a5,5,0,0,1-1.52,8.53L21.72,57.43a5,5,0,0,1-6.62-5.58l4-22.21a5,5,0,0,1,8.14-2.95l1.19,1a60.08,60.08,0,0,1,80.44-3.06l.13.11h0a60,60,0,0,1,7.23,84.54Z"/><rect class="cls-1" width="141.26" height="141.26"/></g></g></svg>